Coordinates
version=1
nRows=14
nColumns=28
inDegrees=yes

Units are S.I. units (second, meters, Newtons, ...)
If the header above contains a line with 'inDegrees', this indicates whether rotational values are in degrees (yes) or radians (no).

endheader
time	pelvis_tilt	pelvis_list	pelvis_rotation	pelvis_tx	pelvis_ty	pelvis_tz	hip_flexion_r	hip_adduction_r	hip_rotation_r	knee_angle_r	knee_rotation_r	knee_adduction_r	ankle_angle_r	subtalar_angle_r	mtp_angle_r	hip_flexion_l	hip_adduction_l	hip_rotation_l	knee_angle_l	knee_rotation_l	knee_adduction_l	ankle_angle_l	subtalar_angle_l	mtp_angle_l	lumbar_extension	lumbar_bending	lumbar_rotation
      0.00000000	     -5.96581871	      5.08606601	    -93.55742683	     -0.23348731	      0.96772339	     -0.91987039	      5.85728551	      7.58073886	     20.90630648	    -13.04365892	    -19.76147822	      6.57258906	      8.13383668	    -13.87823501	     -1.88621516	     39.33120132	    -13.38737927	      8.00740495	    -52.10248942	      7.38039883	    -14.94834106	      6.14198175	    -13.22821990	     -1.36288465	      0.00000000	      0.00000000	      0.00000000
      0.01000000	     -6.24398882	      5.83572924	    -93.56338234	     -0.23379203	      0.96596308	     -0.90896035	      5.85039746	      7.85738938	     20.90363810	    -13.00831179	    -20.10200802	      6.67844702	      8.64498003	    -13.56223971	     -2.45793530	     40.27552889	    -13.14511410	      5.40936933	    -48.26315127	      7.98017567	    -11.66668362	      7.22733220	    -10.33438887	     -1.74047306	      0.00000000	      0.00000000	      0.00000000
      0.02000000	     -6.47222068	      6.55757487	    -93.59023561	     -0.23394403	      0.96422142	     -0.89784024	      5.81680792	      8.05664763	     20.86416447	    -12.98901574	    -20.44086993	      6.77202221	      9.22862664	    -12.83940486	     -2.88195789	     40.98223688	    -12.89552818	      3.37041552	    -44.20490073	      8.78452012	     -9.06575701	      8.29750612	     -7.29512357	     -1.51302689	      0.00000000	      0.00000000	      0.00000000
      0.03000000	     -6.57527411	      7.22356200	    -93.59622494	     -0.23373999	      0.96259151	     -0.88643387	      5.73182675	      8.04408447	     20.67281649	    -12.99504867	    -20.65513335	      6.93292728	      9.81453502	    -12.08092363	     -3.13432950	     41.39222052	    -12.49235465	      1.90059028	    -39.89104325	      9.77989876	     -7.04895716	      9.30535141	     -4.46571026	     -0.83183529	      0.00000000	      0.00000000	      0.00000000
      0.04000000	     -6.61991744	      7.84215319	    -93.57780374	     -0.23330162	      0.96100510	     -0.87466966	      5.57589679	      7.92931203	     20.30615589	    -12.98401127	    -20.64613254	      7.07873088	     10.40390285	    -11.36852228	     -3.23205733	     41.55663535	    -12.01712045	      0.95378640	    -35.42764405	     10.92349151	     -5.50681868	     10.14958644	     -1.95151630	      0.03028913	      0.00000000	      0.00000000	      0.00000000
      0.05000000	     -6.61204988	      8.31885678	    -93.55270635	     -0.23259346	      0.95953945	     -0.86279412	      5.29895697	      7.68520839	     19.90064767	    -13.03265447	    -20.73018536	      7.33687336	     10.95722533	    -10.64182108	     -3.21262318	     41.39506150	    -11.47031555	      0.58972644	    -30.85123662	     12.24531033	     -4.37744523	     10.89009899	      0.34387859	      1.13559380	      0.00000000	      0.00000000	      0.00000000
      0.06000000	     -6.53962542	      8.79699720	    -93.59797031	     -0.23189735	      0.95806194	     -0.85049193	      4.99240849	      7.36842138	     19.45106027	    -13.05862579	    -20.52855996	      7.55262502	     11.46128051	    -10.05534299	     -3.12330840	     41.04023675	    -10.93783393	      0.63976439	    -26.21977161	     13.72626324	     -3.57114127	     11.43861322	      2.09156723	      1.80382109	      0.00000000	      0.00000000	      0.00000000
      0.07000000	     -6.44757794	      9.22828188	    -93.75709991	     -0.23131587	      0.95657287	     -0.83793983	      4.64203128	      7.03609577	     19.08631868	    -13.12498401	    -20.21938829	      7.76073503	     11.91630523	     -9.54808904	     -3.03307604	     40.49826311	    -10.50555998	      1.05164920	    -21.64134345	     15.36329504	     -3.00668688	     11.71984866	      3.36968083	      2.05476445	      0.00000000	      0.00000000	      0.00000000
      0.08000000	     -6.37268890	      9.45479896	    -93.96220190	     -0.23063136	      0.95519796	     -0.82528128	      4.10097891	      6.67530758	     18.74971889	    -13.24645331	    -19.91744140	      8.02535678	     12.36783921	     -8.98837906	     -2.92645943	     39.69480706	    -10.13219254	      1.80198906	    -17.25646220	     17.03070727	     -2.54732279	     12.01974917	      4.33153193	      2.10204610	      0.00000000	      0.00000000	      0.00000000
      0.09000000	     -6.28834856	      9.61498388	    -94.28994516	     -0.23016284	      0.95382776	     -0.81230176	      3.49879798	      6.33239606	     18.48097095	    -13.40999376	    -19.48027762	      8.22394239	     12.77449878	     -8.52832959	     -2.83339139	     38.77633522	     -9.88874142	      2.65369894	    -13.14819684	     18.64902383	     -2.16291297	     12.11136703	      4.82291942	      1.91866347	      0.00000000	      0.00000000	      0.00000000
      0.10000000	     -6.22797704	      9.80661388	    -94.71171982	     -0.22989063	      0.95227336	     -0.79912677	      2.96229285	      6.04104537	     18.34224324	    -13.64319420	    -19.05571633	      8.40222646	     13.14475767	     -8.24209547	     -2.79114534	     37.95963006	     -9.79312497	      3.53372897	     -9.55017505	     20.12264233	     -1.83122482	     12.12100939	      5.02244921	      1.60678438	      0.00000000	      0.00000000	      0.00000000
      0.11000000	     -6.26508716	      9.59356293	    -95.03359526	     -0.22926387	      0.95103447	     -0.78606271	      2.05539777	      5.78617464	     17.99336048	    -13.96931874	    -18.37516811	      8.56381672	     13.47277530	     -7.76810308	     -2.77982676	     36.94364223	     -9.70514839	      4.44704956	     -6.69827732	     21.18232042	     -1.48475960	     12.30268006	      4.95614336	      0.90522600	      0.00000000	      0.00000000	      0.00000000
      0.12000000	     -6.29401322	      9.74541291	    -95.48325610	     -0.22899911	      0.94927252	     -0.77286455	      1.59677992	      5.60011649	     17.94301544	    -14.40888254	    -17.74287262	      8.71612610	     13.75795840	     -7.64727531	     -2.82185286	     36.51997438	     -9.76696078	      5.07563798	     -4.68849623	     21.87114841	     -1.21722737	     12.39927681	      4.81671211	      0.36663075	      0.00000000	      0.00000000	      0.00000000
      0.13000000	     -6.28468454	      9.72817264	    -95.81516413	     -0.22838946	      0.94765305	     -0.75967813	      1.04784251	      5.32518786	     17.69208580	    -14.98318545	    -17.01784297	      8.89632357	     14.06093705	     -7.49656026	     -2.95936352	     36.17898059	     -9.67534093	      5.55573065	     -3.51907958	     21.94314532	     -0.96313446	     12.63214936	      4.36642614	     -0.30263627	      0.00000000	      0.00000000	      0.00000000
